<svg width="255" height="72" viewBox="0 0 255 72" fill="none" xmlns="http://www.w3.org/2000/svg">
<path d="M87.8203 47.8672C90.0312 47.8672 91.6445 48.3008 92.6602 49.168C93.6836 50.0273 94.1953 51.2617 94.1953 52.8711C94.1953 53.5977 94.0742 54.2891 93.832 54.9453C93.5977 55.5938 93.2148 56.168 92.6836 56.668C92.1523 57.1602 91.4531 57.5508 90.5859 57.8398C89.7266 58.1211 88.6719 58.2617 87.4219 58.2617H85.3359V65H83.3438V47.8672H87.8203ZM87.6328 49.5664H85.3359V56.5508H87.1992C88.293 56.5508 89.2031 56.4336 89.9297 56.1992C90.6641 55.9648 91.2148 55.5859 91.582 55.0625C91.9492 54.5312 92.1328 53.8281 92.1328 52.9531C92.1328 51.8125 91.7695 50.9648 91.043 50.4102C90.3164 49.8477 89.1797 49.5664 87.6328 49.5664ZM108.527 65L106.418 59.5625H99.5508L97.4531 65H95.4375L102.141 47.7969H103.934L110.59 65H108.527ZM105.82 57.793L103.816 52.3906C103.77 52.25 103.691 52.0195 103.582 51.6992C103.48 51.3789 103.375 51.0469 103.266 50.7031C103.156 50.3594 103.066 50.082 102.996 49.8711C102.918 50.1914 102.832 50.5117 102.738 50.832C102.652 51.1445 102.566 51.4375 102.48 51.7109C102.395 51.9766 102.32 52.2031 102.258 52.3906L100.219 57.793H105.82ZM125.93 47.8672V58.9531C125.93 60.1641 125.684 61.2422 125.191 62.1875C124.707 63.1328 123.973 63.8789 122.988 64.4258C122.004 64.9648 120.77 65.2344 119.285 65.2344C117.168 65.2344 115.555 64.6602 114.445 63.5117C113.344 62.3633 112.793 60.8281 112.793 58.9062V47.8672H114.797V58.9648C114.797 60.418 115.18 61.5391 115.945 62.3281C116.719 63.1172 117.871 63.5117 119.402 63.5117C120.449 63.5117 121.305 63.3242 121.969 62.9492C122.641 62.5664 123.137 62.0352 123.457 61.3555C123.785 60.668 123.949 59.875 123.949 58.9766V47.8672H125.93ZM130.477 65V47.8672H132.469V63.2188H140.074V65H130.477ZM159.715 65H147.82V63.5L157.043 49.6484H148.137V47.8672H159.469V49.3672L150.234 63.2188H159.715V65ZM182.449 47.8672L177.867 65H175.863L172.465 53.4688C172.363 53.1406 172.266 52.8125 172.172 52.4844C172.086 52.1484 172.004 51.832 171.926 51.5352C171.848 51.2305 171.781 50.9648 171.727 50.7383C171.68 50.5039 171.645 50.3281 171.621 50.2109C171.605 50.3281 171.574 50.5 171.527 50.7266C171.488 50.9531 171.434 51.2148 171.363 51.5117C171.301 51.8086 171.223 52.125 171.129 52.4609C171.043 52.7969 170.949 53.1367 170.848 53.4805L167.543 65H165.539L160.992 47.8672H163.066L165.82 58.6133C165.914 58.9727 166 59.3281 166.078 59.6797C166.164 60.0234 166.238 60.3594 166.301 60.6875C166.371 61.0156 166.434 61.3359 166.488 61.6484C166.543 61.9609 166.594 62.2656 166.641 62.5625C166.68 62.2578 166.73 61.9414 166.793 61.6133C166.855 61.2773 166.922 60.9375 166.992 60.5938C167.07 60.25 167.152 59.9023 167.238 59.5508C167.332 59.1992 167.43 58.8477 167.531 58.4961L170.613 47.8672H172.664L175.875 58.5781C175.984 58.9453 176.086 59.3086 176.18 59.668C176.273 60.0273 176.355 60.3789 176.426 60.7227C176.504 61.0586 176.57 61.3828 176.625 61.6953C176.688 62 176.742 62.2891 176.789 62.5625C176.844 62.1797 176.91 61.7773 176.988 61.3555C177.066 60.9336 177.156 60.4922 177.258 60.0312C177.367 59.5703 177.484 59.0938 177.609 58.6016L180.363 47.8672H182.449ZM200.016 56.4102C200.016 57.7305 199.848 58.9336 199.512 60.0195C199.176 61.0977 198.676 62.0273 198.012 62.8086C197.355 63.582 196.539 64.1797 195.562 64.6016C194.586 65.0234 193.453 65.2344 192.164 65.2344C190.836 65.2344 189.676 65.0234 188.684 64.6016C187.699 64.1797 186.879 63.5781 186.223 62.7969C185.574 62.0156 185.086 61.082 184.758 59.9961C184.438 58.9102 184.277 57.707 184.277 56.3867C184.277 54.6367 184.566 53.1016 185.145 51.7812C185.723 50.4609 186.598 49.4336 187.77 48.6992C188.949 47.9648 190.426 47.5977 192.199 47.5977C193.895 47.5977 195.32 47.9609 196.477 48.6875C197.641 49.4141 198.52 50.4375 199.113 51.7578C199.715 53.0703 200.016 54.6211 200.016 56.4102ZM186.375 56.4102C186.375 57.8633 186.582 59.1211 186.996 60.1836C187.41 61.2461 188.043 62.0664 188.895 62.6445C189.754 63.2227 190.844 63.5117 192.164 63.5117C193.492 63.5117 194.578 63.2227 195.422 62.6445C196.273 62.0664 196.902 61.2461 197.309 60.1836C197.715 59.1211 197.918 57.8633 197.918 56.4102C197.918 54.1992 197.453 52.4727 196.523 51.2305C195.602 49.9805 194.16 49.3555 192.199 49.3555C190.871 49.3555 189.777 49.6406 188.918 50.2109C188.059 50.7812 187.418 51.5938 186.996 52.6484C186.582 53.6953 186.375 54.9492 186.375 56.4102ZM188.836 44.3633C188.836 43.9727 188.938 43.6875 189.141 43.5078C189.344 43.3281 189.594 43.2383 189.891 43.2383C190.195 43.2383 190.449 43.3281 190.652 43.5078C190.863 43.6875 190.969 43.9727 190.969 44.3633C190.969 44.7461 190.863 45.0352 190.652 45.2305C190.449 45.418 190.195 45.5117 189.891 45.5117C189.594 45.5117 189.344 45.418 189.141 45.2305C188.938 45.0352 188.836 44.7461 188.836 44.3633ZM193.336 44.3633C193.336 43.9727 193.438 43.6875 193.641 43.5078C193.844 43.3281 194.09 43.2383 194.379 43.2383C194.676 43.2383 194.93 43.3281 195.141 43.5078C195.352 43.6875 195.457 43.9727 195.457 44.3633C195.457 44.7461 195.352 45.0352 195.141 45.2305C194.93 45.418 194.676 45.5117 194.379 45.5117C194.09 45.5117 193.844 45.418 193.641 45.2305C193.438 45.0352 193.336 44.7461 193.336 44.3633ZM203.836 65V47.8672H205.828V63.2188H213.434V65H203.836ZM218.367 65H216.375V47.8672H225.914V49.625H218.367V55.9062H225.457V57.6523H218.367V65ZM238.312 65H228.773V47.8672H238.312V49.625H230.766V55.168H237.879V56.9023H230.766V63.2422H238.312V65ZM246.738 47.8672C248.145 47.8672 249.305 48.043 250.219 48.3945C251.141 48.7383 251.828 49.2656 252.281 49.9766C252.734 50.6875 252.961 51.5938 252.961 52.6953C252.961 53.6016 252.797 54.3594 252.469 54.9688C252.141 55.5703 251.711 56.0586 251.18 56.4336C250.648 56.8086 250.082 57.0977 249.48 57.3008L254.18 65H251.859L247.664 57.8516H244.102V65H242.109V47.8672H246.738ZM246.621 49.5898H244.102V56.1641H246.82C248.219 56.1641 249.246 55.8789 249.902 55.3086C250.566 54.7383 250.898 53.8984 250.898 52.7891C250.898 51.625 250.547 50.8008 249.844 50.3164C249.148 49.832 248.074 49.5898 246.621 49.5898Z" fill="#3D3D3D"/>
<path d="M22.1091 11.4478C22.1091 11.4478 22.6512 0.729125 22.9205 0.287045C22.9212 0.277684 12.9247 -0.0736757 10.7028 0.798245C5.98464 2.64865 3.67704 7.22785 3.53016 13.4897C3.38256 19.7515 3.72384 26.6311 3.72384 26.6311C3.86496 29.6386 1.1376 30.5479 0 30.3831C0.67608 30.4615 -0.04176 41.2832 0.24048 41.4653C0.27216 41.965 3.9564 41.2724 3.92184 45.1769C3.90168 47.5263 4.51224 61.2948 4.5072 63.6435C4.4964 68.4617 8.40168 70.8003 11.6078 71.4973C14.8169 72.1942 17.5774 72.2309 22.6051 71.197C22.7909 70.4187 22.1091 59.7864 22.1091 59.7864C22.1091 59.7864 17.7711 60.158 17.6285 60.1788C10.8331 60.0773 16.5823 45.4656 14.4086 38.8503C13.9637 37.4952 12.5878 35.8997 12.5878 35.8997C12.5878 35.8997 14.4547 35.4879 14.4547 31.1679C14.4547 28.4369 13.8348 16.2862 15.2359 13.8706C15.503 11.3247 22.1091 11.4478 22.1091 11.4478ZM12.2299 17.2423C12.2299 22.2435 12.2537 27.7464 12.2076 30.4608C12.1162 35.9047 8.43481 35.4879 8.43481 35.4879C8.43481 35.4879 12.7577 36.8595 12.7577 41.2752C12.7577 45.4584 12.4474 53.22 12.4474 58.453C12.4474 64.4175 20.1845 62.3907 19.9527 62.2402C20.1427 62.0069 20.3083 68.2789 20.2745 68.6705C16.6003 69.9449 9.26281 69.3675 7.42896 63.3346C6.41808 60.0082 6.18624 42.3228 6.27408 41.983C5.40072 41.0132 2.93472 39.4803 2.71224 39.0879L2.52864 33.1025C2.52864 33.1025 6.54264 32.0254 6.68664 27.241C6.83136 22.4573 6.264 9.14521 7.34904 7.15153C10.3788 2.22025 17.0676 3.68977 20.2781 3.42049C20.3033 3.55513 19.8864 7.79521 20.2047 8.34241C12.3293 8.12209 12.2299 12.517 12.2299 17.2423ZM72 30.1735C70.8624 30.3384 68.1351 29.4298 68.2769 26.4216C68.2769 26.4216 68.6182 19.5427 68.4706 13.2802C68.3237 7.01833 66.0161 2.43913 61.2987 0.588725C59.076 -0.282476 49.0796 0.0681644 49.0796 0.0775244C49.3496 0.519605 49.891 11.2383 49.891 11.2383C49.891 11.2383 56.4977 11.1144 56.7648 13.6618C58.1667 16.0774 57.5468 28.2274 57.5468 30.9591C57.5468 35.2783 59.4137 35.6902 59.4137 35.6902C59.4137 35.6902 58.0378 37.2864 57.5921 38.6408C55.4184 45.2568 61.1684 59.8685 54.3723 59.97C54.2297 59.9484 49.891 59.5769 49.891 59.5769C49.891 59.5769 49.2091 70.2092 49.3949 70.9882C54.4234 72.0214 57.1839 71.9854 60.3922 71.2877C63.5991 70.5908 67.5044 68.2529 67.4928 63.434C67.4878 61.0846 68.0991 47.316 68.0782 44.9674C68.0436 41.0636 71.7272 41.7555 71.7596 41.2565C72.0425 41.0736 71.3247 30.2535 72 30.1735ZM69.2864 38.8791C69.0639 39.2715 66.5986 40.8044 65.7252 41.7742C65.8124 42.1155 65.582 59.7994 64.5704 63.1258C62.7365 69.1587 55.399 69.7369 51.7241 68.4617C51.6903 68.0708 51.8566 61.7981 52.046 62.0314C51.8148 62.1819 59.5512 64.2087 59.5512 58.2442C59.5512 53.0105 59.2416 45.2496 59.2416 41.0672C59.2416 36.6507 63.5645 35.2791 63.5645 35.2791C63.5645 35.2791 59.8832 35.6952 59.7917 30.2527C59.7464 27.5376 59.7701 22.0347 59.7701 17.0335C59.7701 12.3082 59.6708 7.91329 51.7961 8.13361C52.1144 7.58641 51.6975 3.34633 51.7227 3.21241C54.9324 3.48097 61.6212 2.01145 64.6503 6.94345C65.736 8.93713 65.168 22.2499 65.312 27.0329C65.4552 31.8173 69.4692 32.8944 69.4692 32.8944L69.2864 38.8791ZM44.1411 32.1413C44.6069 32.0628 27.2758 32.3184 27.409 32.1067C27.6099 32.1334 27.2196 49.2708 27.5796 48.8367C27.6552 49.1664 35.7653 49.242 35.959 48.8424C35.9885 51.2271 35.6429 53.8623 33.9322 55.6846C32.899 56.73 28.4227 57.4515 28.4227 57.4515L28.7763 61.4597C45.4608 61.5281 44.3059 53.6592 44.2627 49.214C44.3347 48.9555 44.1648 32.0671 44.1411 32.1413ZM35.2152 58.016C37.0555 56.3931 37.8475 54.8739 38.2846 52.3517C38.4372 51.4712 38.1039 46.4708 38.1039 46.4708C38.0268 46.3527 29.8822 46.3736 29.8822 46.3736C29.9815 46.0107 30.0535 34.6894 30.2919 34.6512C30.2551 34.5907 41.6153 34.6606 41.472 34.7981C41.472 34.7981 41.4526 44.0652 41.4972 47.8748C41.562 53.4476 41.6722 57.3485 35.2152 58.016ZM44.3225 10.3318C43.9963 10.4808 27.1613 10.4059 27.5105 10.4887C27.198 10.3462 27.4651 27.3821 27.4407 27.3468C27.2952 27.3627 44.0921 27.4987 44.6436 27.1827C44.2951 27.3943 44.2404 10.6947 44.3225 10.3318ZM41.5361 24.6303C41.539 24.6619 30.091 24.5395 29.8894 24.5446C30.2515 24.6346 30.1529 13.0771 29.9635 13.0915C29.8887 13.1405 41.5843 13.0829 41.7003 13.08C41.7967 13.1218 41.7204 24.7476 41.5361 24.6303Z" fill="#3D3D3D"/>
</svg>
