<?xml version="1.0" standalone="no"?>
<!DOCTYPE svg PUBLIC "-//W3C//DTD SVG 20010904//EN"
 "http://www.w3.org/TR/2001/REC-SVG-20010904/DTD/svg10.dtd">
<svg version="1.0" xmlns="http://www.w3.org/2000/svg"
 width="700.000000pt" height="700.000000pt" viewBox="0 0 700.000000 700.000000"
 preserveAspectRatio="xMidYMid meet">
<metadata>
Created by potrace 1.14, written by Peter Selinger 2001-2017
</metadata>
<g transform="translate(0.000000,700.000000) scale(0.100000,-0.100000)"
fill="#000000" stroke="none">
<path d="M4787 6993 c-9 -3 -15 -8 -13 -11 2 -4 7 -41 11 -82 4 -41 9 -88 10
-105 5 -42 15 -185 20 -274 2 -40 7 -110 10 -155 3 -44 7 -121 10 -171 8 -162
16 -280 20 -284 2 -2 41 -5 86 -7 247 -8 434 -56 521 -132 47 -42 100 -187
114 -317 3 -33 8 -68 10 -78 17 -91 23 -717 12 -1247 -4 -227 3 -314 33 -408
25 -79 56 -130 104 -170 l37 -30 -41 -52 c-149 -188 -182 -323 -176 -705 2
-132 6 -251 8 -265 3 -14 8 -61 11 -105 4 -44 9 -102 12 -130 21 -211 29 -356
28 -545 -1 -214 -13 -293 -60 -385 -59 -113 -133 -158 -264 -159 -47 -1 -116
2 -155 7 -38 4 -101 10 -140 12 -38 3 -87 8 -107 10 -37 5 -38 4 -39 -28 -1
-17 -2 -45 -4 -62 -1 -16 -6 -93 -10 -170 -4 -77 -9 -156 -10 -175 -10 -138
-19 -361 -19 -504 -1 -143 1 -169 14 -171 8 -2 40 -7 70 -14 30 -6 70 -13 88
-16 17 -3 44 -7 60 -9 140 -23 222 -29 372 -30 153 -1 274 6 336 18 11 3 55
12 99 21 340 69 589 263 679 527 30 90 34 126 40 373 5 180 11 348 21 605 3
63 7 194 10 290 3 96 8 219 10 272 3 53 7 199 10 325 6 256 14 310 53 370 48
72 115 111 229 133 35 7 68 19 74 27 9 10 11 66 10 191 -7 399 -6 800 2 842
l7 45 -36 2 c-146 8 -286 130 -308 268 -9 58 -9 90 0 290 16 376 10 1287 -10
1346 -3 8 -7 32 -10 55 -61 493 -417 904 -823 949 -33 3 -82 9 -109 11 -60 7
-882 12 -907 7z m883 -316 c14 -4 42 -9 62 -12 217 -30 403 -134 518 -290 49
-67 63 -110 76 -240 3 -33 8 -76 11 -95 3 -19 7 -377 9 -795 2 -418 4 -802 5
-852 3 -177 58 -328 158 -432 60 -62 150 -125 209 -145 32 -11 37 -17 35 -42
0 -16 -4 -135 -8 -264 -8 -281 -8 -282 -19 -298 -4 -7 -60 -52 -124 -100 -236
-177 -212 -131 -213 -407 -1 -126 -2 -270 -4 -320 -8 -273 -16 -539 -20 -600
-2 -38 -7 -124 -10 -190 -3 -66 -8 -142 -10 -170 -2 -27 -6 -88 -10 -135 -3
-47 -8 -101 -10 -120 -3 -19 -7 -56 -10 -82 -6 -55 -22 -161 -30 -199 -10 -51
-61 -165 -100 -223 -156 -236 -443 -371 -792 -374 -111 -1 -245 15 -322 39
l-43 13 7 230 c4 127 8 249 10 271 1 22 3 59 4 83 1 24 5 41 10 38 27 -17 170
-38 261 -38 267 -1 422 106 461 317 11 59 9 362 -8 1000 -3 149 -7 407 -7 575
l-1 305 28 75 c15 41 45 100 66 130 49 71 156 161 244 205 61 31 66 35 39 35
-50 0 -136 37 -184 79 -91 81 -135 206 -143 406 -3 55 -5 426 -6 825 -2 843
-6 894 -84 1050 -71 140 -238 243 -430 265 -32 4 -66 9 -74 10 -9 2 -52 4 -96
4 l-81 1 0 128 c0 70 -4 177 -8 238 l-7 110 308 -1 c169 -1 319 -4 333 -8z"/>
<path d="M1458 6975 c-2 -1 -55 -5 -118 -9 -63 -4 -133 -9 -155 -12 -265 -35
-523 -230 -668 -504 -66 -126 -127 -313 -143 -442 -3 -24 -7 -49 -10 -57 -20
-62 -27 -920 -10 -1336 11 -297 8 -327 -40 -405 -54 -88 -170 -159 -264 -163
-45 -2 -47 -3 -37 -22 12 -20 14 -345 7 -847 -2 -138 1 -202 9 -212 6 -7 39
-19 74 -25 159 -31 250 -114 271 -246 3 -22 8 -143 11 -270 3 -126 8 -277 10
-335 2 -58 7 -175 10 -260 3 -85 7 -216 10 -290 11 -275 15 -390 20 -599 6
-244 20 -330 71 -439 34 -75 107 -174 165 -227 58 -52 188 -133 264 -164 68
-29 227 -73 305 -85 103 -16 182 -21 345 -20 184 0 275 9 470 46 61 11 117 21
125 23 13 2 15 28 14 171 -1 155 -8 359 -19 509 -2 33 -7 112 -10 175 -4 63
-8 140 -10 170 -2 30 -4 62 -4 71 -1 13 -9 16 -33 13 -18 -1 -69 -6 -113 -9
-44 -4 -96 -8 -115 -10 -145 -17 -220 -17 -274 0 -107 34 -176 121 -212 270
-14 54 -18 117 -18 270 -1 176 8 374 18 431 2 10 7 59 11 108 4 49 8 101 10
115 20 159 27 579 13 694 -19 144 -59 244 -154 379 -58 82 -61 88 -40 88 16 0
79 67 99 107 49 95 64 222 59 483 -12 533 -6 1105 13 1250 13 103 17 129 26
170 27 126 72 212 133 249 35 22 131 59 176 67 14 3 43 9 65 14 50 11 158 22
253 25 40 1 74 4 77 6 5 6 15 147 30 449 2 52 7 124 10 160 2 36 7 106 11 155
3 50 7 104 9 120 12 133 18 181 21 186 2 4 -7 9 -21 11 -24 5 -742 8 -747 3z
m506 -420 c-4 -60 -8 -167 -8 -238 l-1 -127 -65 -1 c-228 -3 -400 -52 -511
-147 -85 -73 -157 -223 -175 -363 -7 -57 -11 -369 -18 -1239 -4 -560 -5 -573
-56 -686 -51 -113 -141 -186 -248 -200 l-53 -7 68 -33 c143 -69 265 -203 315
-344 22 -63 23 -76 22 -370 0 -168 -4 -417 -7 -555 -4 -137 -10 -419 -13 -625
-5 -394 -3 -418 42 -515 45 -96 175 -176 314 -192 98 -12 250 -4 320 17 53 15
56 13 59 -33 2 -23 5 -60 6 -82 2 -22 7 -142 10 -266 l7 -226 -58 -16 c-33 -9
-85 -20 -117 -25 -76 -12 -279 -13 -337 -2 -25 4 -63 11 -84 14 -43 7 -142 34
-166 46 -8 4 -40 18 -70 31 -197 86 -358 267 -415 468 -18 65 -26 110 -39 221
-4 30 -9 71 -11 90 -8 59 -15 159 -30 420 -5 80 -13 269 -21 465 -2 66 -7 291
-10 500 l-6 380 -27 28 c-14 16 -80 70 -146 119 -187 142 -172 121 -175 251
-1 62 -3 139 -5 172 -3 67 -7 274 -6 291 1 7 13 15 29 19 42 10 134 70 189
122 111 106 171 247 179 417 3 56 6 452 8 881 2 429 6 791 9 805 3 14 8 57 11
95 13 158 49 231 172 344 117 107 295 177 503 197 36 3 67 7 69 9 2 2 127 2
278 2 l275 -2 -7 -110z"/>
<path d="M4278 5994 c-3 -2 -363 -6 -802 -8 -438 -2 -800 -6 -804 -10 -9 -9
-9 -1622 0 -1631 8 -9 1314 -8 1503 0 148 7 169 10 161 23 -14 22 -26 509 -29
1129 -1 366 -5 494 -13 497 -7 3 -14 3 -16 0z m-224 -729 c-1 -447 -6 -634
-17 -652 -3 -5 -99 -8 -214 -7 -114 1 -367 3 -561 4 l-353 2 7 31 c9 42 13
922 5 1010 -4 37 -6 69 -5 70 1 1 258 2 571 2 l568 0 -1 -460z"/>
<path d="M2669 3475 c-2 -839 -1 -1175 5 -1199 7 -29 18 -33 111 -42 107 -10
604 -7 657 4 56 11 57 10 52 -73 -12 -231 -53 -380 -137 -504 -51 -75 -93
-108 -178 -141 -71 -27 -320 -92 -389 -102 -24 -3 -25 -5 -21 -63 2 -33 4 -67
6 -76 2 -8 6 -60 10 -114 4 -54 9 -105 10 -114 2 -9 4 -19 4 -22 1 -9 374 4
442 16 13 2 47 7 74 10 174 20 382 77 521 144 125 60 157 82 254 180 118 119
186 272 207 464 10 92 4 1842 -6 2022 -1 8 -256 11 -811 10 l-810 0 -1 -400z
m1019 152 c182 -2 334 -6 336 -8 8 -8 10 -1641 2 -1689 -4 -25 -9 -63 -12 -85
-14 -105 -63 -221 -126 -294 -54 -63 -190 -141 -273 -157 -11 -2 -40 -8 -65
-13 -25 -6 -63 -13 -85 -16 l-39 -6 57 58 c110 111 170 217 214 380 29 108 34
223 19 493 -11 189 -10 184 -20 192 -5 3 -183 7 -395 8 -212 0 -387 3 -389 5
-3 2 -3 53 -2 112 1 59 4 169 5 243 4 216 17 662 20 700 2 19 4 45 4 57 1 28
9 29 236 26 99 -1 330 -4 513 -6z"/>
</g>
</svg>
